<svg width="22" height="21" viewBox="0 0 22 21" fill="none" xmlns="http://www.w3.org/2000/svg">
<path d="M20.4383 9.65594L11.2483 17.8888C10.1225 18.8974 8.59552 19.464 7.00334 19.464C5.41115 19.464 3.88418 18.8974 2.75834 17.8888C1.63249 16.8802 1 15.5123 1 14.0859C1 12.6596 1.63249 11.2916 2.75834 10.283L11.9483 2.05014C12.6989 1.37775 13.7169 1 14.7783 1C15.8398 1 16.8578 1.37775 17.6083 2.05014C18.3589 2.72254 18.7806 3.6345 18.7806 4.58541C18.7806 5.53632 18.3589 6.44828 17.6083 7.12067L8.40834 15.3536C8.03306 15.6898 7.52406 15.8786 6.99334 15.8786C6.46261 15.8786 5.95362 15.6898 5.57834 15.3536C5.20306 15.0174 4.99222 14.5614 4.99222 14.0859C4.99222 13.6105 5.20306 13.1545 5.57834 12.8183L14.0683 5.22146" stroke="#D71B3A" stroke-width="2" stroke-linecap="round" stroke-linejoin="round"/>
</svg>
