<svg width="34" height="28" viewBox="0 0 34 28" fill="none" xmlns="http://www.w3.org/2000/svg">
<path d="M32.2467 23.7064C32.2467 24.4592 31.9477 25.1811 31.4154 25.7134C30.8831 26.2457 30.1612 26.5447 29.4084 26.5447H3.86369C3.11093 26.5447 2.389 26.2457 1.85671 25.7134C1.32443 25.1811 1.02539 24.4592 1.02539 23.7064V8.09576C1.02539 7.34299 1.32443 6.62106 1.85671 6.08877C2.389 5.55649 3.11093 5.25745 3.86369 5.25745H9.5403L12.3786 1H20.8935L23.7318 5.25745H29.4084C30.1612 5.25745 30.8831 5.55649 31.4154 6.08877C31.9477 6.62106 32.2467 7.34299 32.2467 8.09576V23.7064Z" stroke="white" stroke-width="2" stroke-linecap="round" stroke-linejoin="round"/>
<path d="M16.6363 20.8681C19.7714 20.8681 22.3129 18.3266 22.3129 15.1915C22.3129 12.0564 19.7714 9.51489 16.6363 9.51489C13.5012 9.51489 10.9597 12.0564 10.9597 15.1915C10.9597 18.3266 13.5012 20.8681 16.6363 20.8681Z" stroke="white" stroke-width="2" stroke-linecap="round" stroke-linejoin="round"/>
</svg>
