<svg width="33" height="28" viewBox="0 0 33 28" fill="none" xmlns="http://www.w3.org/2000/svg">
<path d="M10.8347 20.6614L16.4476 26.2743L22.0604 20.6614" stroke="white" stroke-width="2" stroke-linecap="round" stroke-linejoin="round"/>
<path d="M16.4487 13.6456V26.2745" stroke="white" stroke-width="2" stroke-linecap="round" stroke-linejoin="round"/>
<path d="M28.9084 22.1908C30.1283 21.3329 31.0432 20.1086 31.5202 18.6956C31.9971 17.2826 32.0114 15.7543 31.561 14.3326C31.1106 12.9108 30.2188 11.6696 29.0151 10.7891C27.8115 9.90853 26.3585 9.43444 24.8671 9.43561H23.0991C22.6771 7.79087 21.8874 6.2633 20.7896 4.9679C19.6918 3.6725 18.3144 2.64303 16.7611 1.957C15.2078 1.27096 13.5192 0.946228 11.8222 1.00725C10.1253 1.06828 8.46434 1.51347 6.96437 2.3093C5.46439 3.10514 4.1645 4.23089 3.16256 5.6018C2.16062 6.97271 1.48273 8.55305 1.17993 10.2239C0.87713 11.8947 0.957309 13.6124 1.41443 15.2477C1.87156 16.8831 2.69371 18.3934 3.819 19.665" stroke="white" stroke-width="2" stroke-linecap="round" stroke-linejoin="round"/>
</svg>
