<svg width="149" height="46" viewBox="0 0 149 46" fill="none" xmlns="http://www.w3.org/2000/svg">
<path d="M6.26539 27.696V23.6703C6.26539 23.1363 6.2803 22.5179 6.32256 22.0535L2.46291 27.696H0V17.8465H2.60458V21.8772C2.60458 22.426 2.60457 23.0444 2.5499 23.5088L6.40706 17.8539H8.87245V27.7035L6.26539 27.696Z" fill="white"/>
<path d="M19.6114 17.8465V27.696H16.9969V23.9385H13.3361V27.696H10.729V17.8465H13.3361V21.6288H16.9969V17.8465H19.6114Z" fill="white"/>
<path d="M26.3215 17.6354C27.3088 17.6298 28.2853 17.8409 29.1821 18.2537V20.7174C28.4933 20.1854 27.6443 19.9026 26.7738 19.9152C25.2106 19.9152 23.6623 20.772 23.6623 22.9103C23.6623 24.8251 25.2106 25.6124 26.744 25.6124C27.758 25.6124 28.6875 25.3019 29.2516 24.7556V27.2862C28.3524 27.7051 27.3707 27.9173 26.3787 27.9071C23.6747 27.9071 20.9856 26.4294 20.9856 22.9103C20.9806 19.1975 23.6573 17.6354 26.3215 17.6354Z" fill="white"/>
<path d="M38.1044 17.8465V20.1685H35.3308V27.696H32.7237V20.1685H29.9377V17.8465H38.1044Z" fill="white"/>
<path d="M43.1172 17.8465C45.5528 17.8465 47.4118 18.6337 47.4118 21.2215C47.4118 23.8093 45.5528 24.5867 43.1172 24.5991H41.8199V27.696H39.2153V17.8465H43.1172ZM43.244 20.0965H41.8199V22.349H43.244C44.0318 22.349 44.7351 22.1007 44.7351 21.2215C44.7351 20.3424 44.0318 20.0965 43.244 20.0965Z" fill="white"/>
<path d="M50.3691 27.9071C49.8332 27.8907 49.3021 27.8005 48.7909 27.6389V25.4857C49.1572 25.6157 49.543 25.6821 49.9317 25.6819C50.5505 25.6819 50.9879 25.513 51.2141 25.0089L51.3682 24.6711L47.5234 17.8465H50.4113L52.5785 22.3341L54.353 17.8465H57.2384L53.677 25.4435C52.7898 27.3409 51.7062 27.9071 50.3691 27.9071Z" fill="white"/>
<path d="M69.0534 17.8465V27.696H66.4488V22.4608L64.3363 25.6894H62.8451L60.7351 22.4384V27.6886H58.1331V17.8465H60.5985L63.6007 22.4608L66.583 17.8465H69.0534Z" fill="white"/>
<path d="M78.0153 17.8465V20.0965H73.5169V21.6015H77.5878V23.8367H73.5169V25.441H78.0923V27.6935H70.9124V17.8465H78.0153Z" fill="white"/>
<path d="M88.471 17.8465V27.696H85.8665V23.9385H82.2056V27.696H79.6011V17.8465H82.2056V21.6288H85.8665V17.8465H88.471Z" fill="white"/>
<path d="M97.7511 17.8465V20.1685H94.9775V27.696H92.373V20.1685H89.5845V17.8465H97.7511Z" fill="white"/>
<path d="M138.065 11.901L127.177 22.8284L138.112 33.7086L149 22.7812L138.065 11.901ZM139.65 20.3449V29.1961H136.589V20.3548H133.31V17.6229H142.914V20.3548L139.65 20.3449Z" fill="white"/>
<path d="M114.166 11.9829L103.278 22.9103L114.214 33.7905L125.099 22.8631L114.166 11.9829ZM115.069 25.5652H113.555V29.206H110.483V17.6254H115.069C117.932 17.6254 120.119 18.5518 120.119 21.599C120.119 24.6463 117.932 25.5503 115.069 25.5652Z" fill="white"/>
<path d="M115.218 20.2704H113.555V22.9178H115.228C116.155 22.9178 116.982 22.6372 116.982 21.5941C116.982 20.551 116.145 20.2704 115.218 20.2704Z" fill="white"/>
<path d="M126.108 0L115.22 10.9274L119.989 15.6684L124.555 10.987C124.398 10.8306 124.306 10.7387 124.306 10.7387C124.306 10.7387 128.78 6.55893 122.957 5.83127C121.689 5.69716 121.866 5.26006 123.026 5.13837C125.119 4.92975 127.361 5.65494 129.503 7.7535C132.61 10.8852 131.874 10.5847 129.573 12.9341C129.573 12.8596 129.545 12.7851 129.528 12.7106C129.528 12.6758 129.503 12.6386 129.488 12.5938C129.468 12.5401 129.444 12.4878 129.416 12.4374C129.405 12.4113 129.392 12.3864 129.376 12.3629C129.342 12.305 129.303 12.2502 129.26 12.199C129.17 12.0888 129.054 12.0033 128.922 11.9506C128.027 11.6104 127.15 12.199 126.722 12.5566C126.63 12.6386 126.344 12.9167 126.434 12.8298C126.434 12.8298 126.344 12.7354 126.198 12.5938L121.61 17.2827L126.153 21.8027L137.038 10.8753L126.108 0ZM130.535 13.4954C130.492 13.5384 130.442 13.5726 130.386 13.5959C130.33 13.6192 130.271 13.6312 130.21 13.6312C130.15 13.6312 130.09 13.6192 130.034 13.5959C129.979 13.5726 129.928 13.5384 129.886 13.4954L129.508 13.1253L131.906 10.6418L132.299 11.0193C132.385 11.1066 132.432 11.2238 132.432 11.3459C132.432 11.468 132.385 11.5852 132.299 11.6725L130.535 13.4954Z" fill="white"/>
<path d="M126.727 36.8676C126.122 37.086 125.466 37.1263 124.839 36.9839C124.211 36.8414 123.638 36.5222 123.186 36.064C122.735 35.6058 122.424 35.0278 122.292 34.3986C122.159 33.7695 122.209 33.1154 122.437 32.5141L124.348 34.5555L126.337 32.6805L124.373 30.5695C124.994 30.3297 125.672 30.2793 126.322 30.4245C126.972 30.5697 127.564 30.9041 128.023 31.3854C128.483 31.8667 128.789 32.4733 128.904 33.1286C129.019 33.7839 128.937 34.4585 128.668 35.0671C130.524 37.3172 131.571 38.1566 132.562 39.2667L137.053 34.7592L126.118 23.8789L115.23 34.8063L126.165 45.6841L130.753 41.0822C129.766 39.9695 128.805 38.9985 126.727 36.8676Z" fill="white"/>
</svg>
