<svg width="160" height="50" viewBox="0 0 160 50" fill="none" xmlns="http://www.w3.org/2000/svg">
<path d="M6.72795 29.7407V25.4178C6.72795 24.8444 6.74396 24.1804 6.78933 23.6817L2.64474 29.7407H0V19.164H2.79686V23.4923C2.79686 24.0817 2.79686 24.7457 2.73815 25.2444L6.88006 19.172H9.52747V29.7487L6.72795 29.7407Z" fill="#4B4C4F"/>
<path d="M21.0593 19.164V29.7407H18.2517V25.7058H14.3206V29.7407H11.5211V19.164H14.3206V23.2256H18.2517V19.164H21.0593Z" fill="#4B4C4F"/>
<path d="M28.2647 18.9372C29.325 18.9313 30.3735 19.158 31.3365 19.6013V22.2468C30.5968 21.6756 29.6852 21.3719 28.7505 21.3854C27.0718 21.3854 25.4092 22.3055 25.4092 24.6016C25.4092 26.6578 27.0718 27.5032 28.7184 27.5032C29.8073 27.5032 30.8054 27.1698 31.4112 26.5831V29.3006C30.4456 29.7505 29.3914 29.9783 28.3261 29.9673C25.4225 29.9673 22.5349 28.3806 22.5349 24.6016C22.5296 20.6147 25.4038 18.9372 28.2647 18.9372Z" fill="#4B4C4F"/>
<path d="M40.9175 19.164V21.6575H37.9392V29.7407H35.1396V21.6575H32.1479V19.164H40.9175Z" fill="#4B4C4F"/>
<path d="M46.3003 19.164C48.9157 19.164 50.9119 20.0094 50.9119 22.7883C50.9119 25.5671 48.9157 26.4018 46.3003 26.4152H44.9072V29.7407H42.1104V19.164H46.3003ZM46.4364 21.5802H44.9072V23.999H46.4364C47.2824 23.999 48.0377 23.7323 48.0377 22.7883C48.0377 21.8442 47.2824 21.5802 46.4364 21.5802Z" fill="#4B4C4F"/>
<path d="M54.0877 29.9674C53.5123 29.9498 52.942 29.8529 52.3931 29.6794V27.3672C52.7863 27.5068 53.2007 27.5781 53.618 27.5779C54.2825 27.5779 54.7522 27.3966 54.9951 26.8552L55.1606 26.4925L51.032 19.164H54.1331L56.4602 23.983L58.3657 19.164H61.4642L57.6398 27.3219C56.6871 29.3594 55.5235 29.9674 54.0877 29.9674Z" fill="#4B4C4F"/>
<path d="M74.1512 19.164V29.7407H71.3544V24.119L69.0859 27.5859H67.4846L65.2189 24.095V29.7327H62.4247V19.164H65.0721L68.296 24.119L71.4985 19.164H74.1512Z" fill="#4B4C4F"/>
<path d="M83.7746 19.164V21.5802H78.9442V23.1963H83.3156V25.5965H78.9442V27.3192H83.8574V29.7381H76.1473V19.164H83.7746Z" fill="#4B4C4F"/>
<path d="M95.0025 19.164V29.7407H92.2056V25.7058H88.2745V29.7407H85.4777V19.164H88.2745V23.2256H92.2056V19.164H95.0025Z" fill="#4B4C4F"/>
<path d="M104.968 19.164V21.6575H101.989V29.7407H99.1923V21.6575H96.198V19.164H104.968Z" fill="#4B4C4F"/>
<path d="M148.257 12.7796L136.565 24.5138L148.308 36.1972L160 24.4631L148.257 12.7796ZM149.96 21.8469V31.3516H146.672V21.8576H143.152V18.924H153.464V21.8576L149.96 21.8469Z" fill="#4B4C4F"/>
<path d="M122.595 12.8676L110.903 24.6017L122.645 36.2852L134.334 24.551L122.595 12.8676ZM123.563 27.4526H121.938V31.3622H118.639V18.9266H123.563C126.638 18.9266 128.986 19.9214 128.986 23.1936C128.986 26.4658 126.638 27.4366 123.563 27.4526Z" fill="#4B4C4F"/>
<path d="M123.724 21.767H121.938V24.6098H123.734C124.73 24.6098 125.619 24.3085 125.619 23.1884C125.619 22.0683 124.719 21.767 123.724 21.767Z" fill="#4B4C4F"/>
<path d="M135.418 0L123.726 11.7341L128.848 16.8252L133.75 11.7981C133.582 11.6301 133.483 11.5315 133.483 11.5315C133.483 11.5315 138.287 7.04315 132.034 6.26177C130.673 6.11776 130.863 5.64839 132.109 5.51771C134.356 5.2937 136.763 6.07242 139.064 8.32591C142.4 11.6888 141.61 11.3661 139.139 13.889C139.139 13.809 139.109 13.7289 139.09 13.6489C139.09 13.6116 139.064 13.5716 139.048 13.5236C139.026 13.4659 139 13.4098 138.97 13.3556C138.959 13.3276 138.944 13.3008 138.928 13.2756C138.891 13.2134 138.849 13.1545 138.802 13.0996C138.706 12.9813 138.581 12.8895 138.439 12.8329C137.479 12.4675 136.536 13.0996 136.077 13.4836C135.979 13.5716 135.672 13.8703 135.768 13.777C135.768 13.777 135.672 13.6756 135.514 13.5236L130.588 18.5586L135.466 23.4123L147.155 11.6781L135.418 0ZM140.171 14.4917C140.126 14.5379 140.072 14.5746 140.012 14.5996C139.952 14.6247 139.888 14.6376 139.823 14.6376C139.758 14.6376 139.694 14.6247 139.634 14.5996C139.574 14.5746 139.52 14.5379 139.475 14.4917L139.069 14.0943L141.644 11.4275L142.066 11.8328C142.158 11.9265 142.209 12.0524 142.209 12.1835C142.209 12.3146 142.158 12.4405 142.066 12.5342L140.171 14.4917Z" fill="#D71B3A"/>
<path d="M136.083 39.5895C135.433 39.824 134.729 39.8673 134.055 39.7143C133.382 39.5614 132.766 39.2185 132.281 38.7265C131.796 38.2345 131.463 37.6139 131.32 36.9382C131.178 36.2626 131.232 35.5603 131.476 34.9145L133.529 37.1067L135.664 35.0932L133.555 32.8264C134.222 32.5689 134.95 32.5147 135.648 32.6707C136.346 32.8266 136.981 33.1857 137.475 33.7025C137.968 34.2194 138.298 34.8708 138.421 35.5745C138.544 36.2781 138.456 37.0025 138.167 37.656C140.161 40.0722 141.284 40.9736 142.349 42.1657L147.171 37.3254L135.429 25.6419L123.737 37.376L135.48 49.0568L140.406 44.1152C139.347 42.9204 138.314 41.8777 136.083 39.5895Z" fill="#D71B3A"/>
</svg>
